<svg xmlns="http://www.w3.org/2000/svg" width="320" height="68" viewBox="0 0 320 68">
    <defs>
        <linearGradient id="a" x1="0%" y1="50%" y2="50%">
            <stop offset="0%" stop-color="#00AEEF"/>
            <stop offset="100%" stop-color="#1B93D5"/>
        </linearGradient>
    </defs>
    <g fill="none" fill-rule="nonzero">
        <path fill="#000" d="M88.373 37.722l3.183-4.098 7.466-8.16h8.214l-10.667 11.65 11.235 15.21h-8.248l-7.68-10.88-3.13 2.523v8.357h-7.36V14.942h7.272V31.62l-.374 6.102zM117.867 52.324h-7.29V14.942h7.29zM123.413 18.521c0-2.398 1.334-3.579 3.965-3.579 2.63 0 3.964 1.181 3.964 3.58.062.985-.3 1.95-.995 2.647a4.071 4.071 0 0 1-2.97.949c-2.63 0-3.964-1.2-3.964-3.597zm7.591 33.803h-7.27V25.482h7.27v26.842zM147.893 52.807c-8.296 0-12.444-4.593-12.444-13.779a14.7 14.7 0 0 1 3.378-10.396 12.645 12.645 0 0 1 9.724-3.58c2.868-.057 5.71.556 8.302 1.79l-2.186 5.62a33.632 33.632 0 0 0-3.2-1.146 9.93 9.93 0 0 0-2.951-.448c-3.805 0-5.69 2.703-5.69 8.125 0 5.422 1.885 7.873 5.69 7.873 1.312.015 2.619-.173 3.875-.554a13.654 13.654 0 0 0 3.556-1.79v6.263a11.624 11.624 0 0 1-3.556 1.575 20.157 20.157 0 0 1-4.498.447zM167.556 37.722l3.11-4.098 7.467-8.16h8.214l-10.667 11.65 11.236 15.21h-8.41l-7.68-10.88-3.128 2.523v8.357h-7.13V14.942h7.272V31.62l-.373 6.102z"/>
        <path fill="#00AEEF" d="M199.111 52.807c-8.296 0-12.444-4.593-12.444-13.779-.271-3.765.913-7.49 3.306-10.396a12.645 12.645 0 0 1 9.725-3.58c2.867-.057 5.71.556 8.302 1.79l-2.151 5.673a31.862 31.862 0 0 0-3.2-1.146 9.93 9.93 0 0 0-2.951-.447c-3.781 0-5.677 2.708-5.69 8.124-.011 5.416 1.885 8.041 5.69 7.874 1.312.014 2.619-.173 3.875-.555a13.654 13.654 0 0 0 3.556-1.79v6.264a11.624 11.624 0 0 1-3.556 1.575 20.05 20.05 0 0 1-4.462.393zM236.338 52.324h-7.271V36.631c0-3.866-1.44-5.816-4.303-5.816a4.878 4.878 0 0 0-4.32 2.093 12.848 12.848 0 0 0-1.368 6.783v12.633h-7.272V14.942h7.272v7.605c0 .585-.054 1.98-.16 4.188l-.25 2.165h.374a8.392 8.392 0 0 1 7.733-3.937 9.456 9.456 0 0 1 7.111 2.541 10.19 10.19 0 0 1 2.418 7.301l.036 17.52zM254.347 52.807a13.759 13.759 0 0 1-10.08-3.579 13.654 13.654 0 0 1-3.556-10.146A14.936 14.936 0 0 1 244 28.632a13.551 13.551 0 0 1 18.08-.448 12.343 12.343 0 0 1 3.147 8.948v3.579h-17.21a7.06 7.06 0 0 0 1.779 4.885 6.482 6.482 0 0 0 4.817 1.79c1.537.01 3.07-.158 4.57-.502 1.544-.38 3.045-.92 4.48-1.61v5.672a17.17 17.17 0 0 1-4.072 1.432 26.25 26.25 0 0 1-5.244.43zm-1.031-22.636a4.59 4.59 0 0 0-3.556 1.485 6.862 6.862 0 0 0-1.582 4.133H258.4a6.146 6.146 0 0 0-1.404-4.187 4.765 4.765 0 0 0-3.68-1.431zM280.889 52.807c-8.296 0-12.445-4.593-12.445-13.779a14.702 14.702 0 0 1 3.325-10.396 12.628 12.628 0 0 1 9.707-3.58c2.867-.056 5.709.557 8.302 1.79l-2.151 5.673c-1.156-.466-2.223-.86-3.2-1.146a10.037 10.037 0 0 0-2.97-.447c-3.792 0-5.682 2.708-5.67 8.124.012 5.416 1.902 8.041 5.67 7.874a12.881 12.881 0 0 0 3.894-.555 13.938 13.938 0 0 0 3.556-1.79v6.264a11.801 11.801 0 0 1-3.556 1.575 20.156 20.156 0 0 1-4.462.393zM300.444 37.722l3.183-4.098 7.466-8.16h8.214l-10.667 11.65 11.236 15.21h-8.41L304 41.444l-3.129 2.523v8.357h-7.36V14.942h7.271V31.62z"/>
        <rect width="66.827" height="67.266" fill="#000" rx="8.26"/>
        <path fill="#FFF" d="M31.733 27.415v-8.787h-8.746v30.028h8.746v-8.787l8.73 8.787h12.373z"/>
        <path fill="#CECECD" d="M34.258 29.956L22.987 40.567v8.089l8.746-7.122v-1.665l.907.913 6.827-5.565z"/>
        <path fill="url(#a)" d="M40.462 18.628l-17.475 17.59-6.17-6.226-6.186 6.227 12.356 12.437 29.849-30.028z"/>
    </g>
</svg>
