<?xml version="1.0" encoding="UTF-8" standalone="no" ?>
<svg xmlns:dc="http://purl.org/dc/elements/1.1/" xmlns:cc="http://creativecommons.org/ns#" xmlns:rdf="http://www.w3.org/1999/02/22-rdf-syntax-ns#" xmlns:svg="http://www.w3.org/2000/svg" xmlns="http://www.w3.org/2000/svg" viewBox="0 0 130.1404 130.1404" xml:space="preserve" id="svg2" version="1.1">
  <g transform="matrix(1.3333333,0,0,-1.3333333,0,130.1404)" id="g10">
    <g transform="translate(21.4482,-1e-4)" id="g56">
      <path id="path58" style="fill:#050301;fill-opacity:1;fill-rule:nonzero;stroke:none" d="m 0,0 h 54.709 c 11.845,0 21.448,9.603 21.448,21.448 v 54.709 c 0,11.845 -9.603,21.448 -21.448,21.448 L 0,97.605 c -11.845,0 -21.448,-9.603 -21.448,-21.448 V 21.448 C -21.448,9.603 -11.845,0 0,0" />
    </g>
    <g transform="translate(46.3486,57.8119)" id="g60">
      <path id="path62" style="fill:#ffffff;fill-opacity:1;fill-rule:nonzero;stroke:none" d="M 0,0 V 12.766 H -12.766 V -30.819 H 0 v 12.766 l 12.766,-12.766 h 18.052 z" />
    </g>
    <g transform="translate(50.0278,54.1327)" id="g64">
      <path id="path66" style="fill:#c4c5c5;fill-opacity:1;fill-rule:nonzero;stroke:none" d="M 0,0 -16.445,-15.409 V -27.14 l 12.765,10.346 v 2.42 l 1.337,-1.336 9.972,8.081 z" />
    </g>
    <g transform="translate(59.1137,70.5776)" id="g68">
      <path id="path70" style="fill:#00adef;fill-opacity:1;fill-rule:nonzero;stroke:none" d="m 0,0 -25.531,-25.531 -9.027,9.026 -9.026,-9.026 18.053,-18.053 L 18.053,0 Z" />
    </g>
  </g>
</svg>