<svg xmlns="http://www.w3.org/2000/svg" width="29" height="29" viewBox="0 0 29 23">
    <g fill="#00AEEF" fill-rule="evenodd">
        <path d="M2.783 7.266c.367.268 1.473 1.063 3.318 2.386a811.639 811.639 0 0 1 4.24 3.055c.108.078.337.248.688.51.35.263.641.475.873.637.232.162.513.343.842.544.33.2.64.351.93.451.292.101.562.151.81.151h.032c.248 0 .518-.05.81-.15.29-.1.601-.252.93-.452.329-.201.61-.382.842-.544.232-.162.523-.374.873-.637.35-.262.58-.432.688-.51.993-.714 3.517-2.528 7.574-5.441a7.83 7.83 0 0 0 1.974-2.06C28.736 4.403 29 3.56 29 2.68a2.61 2.61 0 0 0-.769-1.892C27.72.262 27.111 0 26.411 0H2.589C1.76 0 1.12.29.672.87.224 1.45 0 2.176 0 3.047c0 .703.297 1.465.89 2.285.593.82 1.225 1.465 1.893 1.934z"/>
        <path d="M27.381 8.46c-3.538 2.481-6.225 4.41-8.058 5.785-.615.47-1.114.836-1.497 1.099s-.893.53-1.53.805c-.636.274-1.23.41-1.78.41h-.032c-.55 0-1.144-.136-1.78-.41-.637-.274-1.147-.542-1.53-.805a38.357 38.357 0 0 1-1.496-1.099C8.22 13.138 5.54 11.21 1.635 8.46A8.666 8.666 0 0 1 0 7v13.316c0 .739.253 1.37.76 1.896.508.525 1.117.788 1.83.788h23.82c.713 0 1.322-.263 1.83-.788a2.63 2.63 0 0 0 .76-1.896V7a9.027 9.027 0 0 1-1.619 1.46z"/>
    </g>
</svg>
