<svg xmlns="http://www.w3.org/2000/svg" width="28" height="28" viewBox="0 0 28 28">
    <path fill="#00AEEF" fill-rule="evenodd" d="M27.987 22.097c.059.455-.08.85-.415 1.187l-3.943 3.915c-.178.198-.41.366-.696.504a2.877 2.877 0 0 1-.845.267c-.02 0-.079.005-.178.015-.099.01-.227.015-.385.015-.376 0-.983-.064-1.823-.193-.84-.128-1.868-.445-3.083-.949s-2.594-1.26-4.135-2.27c-1.541-1.007-3.181-2.392-4.92-4.152-1.384-1.364-2.53-2.67-3.439-3.915-.909-1.246-1.64-2.397-2.193-3.455-.554-1.058-.969-2.017-1.245-2.877C.41 9.329.222 8.587.124 7.964c-.1-.623-.139-1.112-.12-1.468.02-.356.03-.554.03-.593.04-.277.129-.56.267-.846.139-.287.307-.519.504-.697L4.748.415C5.024.138 5.34 0 5.696 0c.257 0 .484.074.682.222.198.149.365.332.504.55l3.171 6.02c.178.317.228.663.149 1.038a1.85 1.85 0 0 1-.504.95l-1.453 1.453a.495.495 0 0 0-.103.193.732.732 0 0 0-.045.222c.08.416.257.89.534 1.424.237.475.602 1.053 1.096 1.735.494.682 1.196 1.468 2.105 2.358.89.91 1.68 1.617 2.371 2.121.692.504 1.27.875 1.734 1.112.465.238.82.38 1.067.43l.37.074c.04 0 .105-.014.194-.044a.495.495 0 0 0 .192-.104l1.69-1.72c.356-.317.77-.475 1.245-.475.336 0 .602.06.8.178h.03l5.72 3.382c.416.257.663.583.742.978z"/>
</svg>
